<svg width="168" height="168" viewBox="0 0 168 168" fill="none" xmlns="http://www.w3.org/2000/svg">
<path d="M84.0002 0.444443C67.4744 0.444443 51.3198 5.34489 37.5792 14.5261C23.8386 23.7073 13.129 36.7569 6.8049 52.0247C0.480783 67.2924 -1.1739 84.0927 2.05011 100.301C5.27412 116.509 13.232 131.397 24.9175 143.083C36.6029 154.768 51.4911 162.726 67.6993 165.95C83.9075 169.174 100.708 167.519 115.975 161.195C131.243 154.871 144.293 144.162 153.474 130.421C162.655 116.68 167.556 100.526 167.556 84C167.556 61.8397 158.753 40.587 143.083 24.9173C127.413 9.24759 106.16 0.444443 84.0002 0.444443ZM138.572 55.9567L69.9524 124.524L29.4279 84C28.0429 82.615 27.2648 80.7365 27.2648 78.7778C27.2648 76.8191 28.0429 74.9406 29.4279 73.5556C30.813 72.1705 32.6915 71.3924 34.6502 71.3924C36.6089 71.3924 38.4874 72.1705 39.8724 73.5556L70.0568 103.74L128.232 45.6167C128.918 44.9309 129.732 44.3869 130.628 44.0157C131.524 43.6446 132.485 43.4536 133.455 43.4536C134.424 43.4536 135.385 43.6446 136.281 44.0157C137.177 44.3869 137.991 44.9309 138.677 45.6167C139.363 46.3025 139.907 47.1166 140.278 48.0126C140.649 48.9087 140.84 49.869 140.84 50.8389C140.84 51.8087 140.649 52.7691 140.278 53.6651C139.907 54.5612 139.363 55.3753 138.677 56.0611L138.572 55.9567Z" fill="#3CBB26"/>
</svg>

